<?xml version="1.0" encoding="UTF-8"?>
<svg id="Layer_1" data-name="Layer 1" xmlns="http://www.w3.org/2000/svg" viewBox="0 0 976.15 900.42">
  <defs>
    <style>
      .cls-1 {
        fill: #fff;
      }
    </style>
  </defs>
  <path class="cls-1" d="M948.76,347.83l-141.65-245.46C770.59,39.03,702.94,0,629.78,0h-283.42c-73.16,0-140.81,39.03-177.33,102.37L27.39,347.83c-36.52,63.34-36.52,141.41,0,204.75l141.65,245.46c36.52,63.34,104.17,102.37,177.33,102.37h283.42c73.16,0,140.81-39.03,177.33-102.37l141.65-245.46c36.52-63.34,36.52-141.41,0-204.75ZM851.53,298.02h-4.31c-4.43,22.87-6.35,35.44-5.87,37.84h-10.18l-5.87,10.18-10.18,5.87h-22.63l-10.18-10.18-4.43-34.96-21.79-2.87v5.87l-21.79,20.36c-4.31,9.22-11.14,21.91-20.36,37.84-12.09,14.13-30.17,35.44-53.88,64.06-3.47,7.3-8.74,17.48-16.04,30.65v5.87c-6.82,9.22-17.48,21.91-32.09,37.84v4.31h-4.31l-5.87,16.04-16.04,10.18-10.3,16.76c-2.99,21.91-6.35,36.4-10.3,43.7l-28.02,10.18c2.16,15.57,3.23,27.66,3.23,36.4,0,12.09-2.39,24.79-7.3,37.84l-10.18,10.18v10.18l-28.38,11.61h-4.43l-37.84-16.04v-21.91c-16.4-37-23.23-61.78-20.36-74.36l-11.61-10.18-10.18-37.96-5.75-4.43h-4.31l-21.91,10.3-5.87,10.3-10.18,5.87v5.87l-20.36,10.3c-7.9,10.66-18.68,26.7-32.33,48.01v10.18l-11.26,10.18h-4.19v16.04l-21.91,26.22v5.87l-4.31,5.87h-11.73l-4.43,4.31-37.96,5.87-32.81-10.18c-15.09-17.48-23.83-31.61-26.22-42.27h-5.87v-16.04l5.87-11.61,16.04-10.18c2.39-45.14,2.39-73.28,0-84.53,6.35-10.66,11.26-23.59,14.61-38.56l16.88-20.36c5.87-21.31,9.7-37.36,11.73-48.13l14.61-16.04-1.44-10.18,5.87-21.79,13.17-16.04-10.54-10.18h-11.61c-11.14,2.87-16.52,4.31-16.04,4.31l-4.43,5.87v5.87c-18.44,4.91-31.37,11.61-38.56,20.36-2.39-.48-4.91-.72-7.3-.72-7.78,0-19.52,2.87-35.32,8.74-15.81,5.87-26.1,8.74-30.89,8.74-1.92,0-3.59-.24-5.15-.72l-5.87-10.18,5.87-10.18v-11.61l32.09-10.18,14.61-16.04h5.87l5.87-10.18c20.95-13.17,44.06-20.36,69.33-21.91v-4.31l16.04-11.61v-4.43h10.18l15.92-32.09h31.85l21.79-10.18h10.18l21.79,20.36h4.31l11.61,32.09-5.75,5.87v4.31l-4.31,5.87h-11.61l-10.18,10.18v5.87l-11.61,20.36v5.87c-8.38,11.61-17.6,50.05-27.78,115.07,6.82,26.7,9.7,44.42,8.74,53.16l11.61,5.87c25.26-14.13,40.11-22.27,44.54-24.79,15.09-9.7,27.42-20.59,37.24-32.81v-4.31h5.87l10.18-21.91c0-26.7,5.27-58.79,15.92-96.15l15.92-26.22,5.75-68.49,20.36-5.87c6.82-8.26,19.4-15.09,37.72-20.36l10.9-11.61,30.53,1.44,23.23,11.61,7.3,11.61,2.87,39.27c-23.71,10.66-41.19,26.7-52.32,48.13v16.04l-5.87,4.31c1.44,11.61.48,24.31-2.87,37.84l8.74,27.66-7.3,23.35c10.9,27.18,15.92,43.22,14.97,48.13l13.41-8.74,10.42,5.87,21.79-16.04,16.04-37.84c13.65-11.61,23.59-23.59,29.93-35.68,10.18-18.92,16.28-29.81,18.2-32.81h4.31l11.61-5.87,10.18-26.22,10.18-5.87,5.87-20.36,31.97-11.61v-4.43c13.53-17.96,20.36-34.01,20.36-48.01,17-28.62,40.23-46.82,69.81-54.6h16.76l20.36,16.04,16.04,48.85-5.87,26.22-.24-.12Z"/>
</svg>